<svg width="27" height="31" viewBox="0 0 27 31" fill="none" xmlns="http://www.w3.org/2000/svg">
            <path d="M3.79736 0.652402C3.66846 0.650449 3.5415 0.697324 3.44189 0.793027L3.36572 0.867246C-1.1167 5.35162 -1.1167 12.6485 3.36572 17.1329C3.46338 17.2286 3.59229 17.2794 3.71924 17.2794C3.84814 17.2794 3.97705 17.2286 4.07471 17.1329C4.26807 16.9376 4.27002 16.6192 4.07471 16.4239C-0.0209961 12.3301 -0.0209956 5.66998 4.06885 1.57818L4.14111 1.50787C4.34033 1.31451 4.34229 0.998105 4.14893 0.80084C4.05322 0.703183 3.92627 0.652402 3.79736 0.652402ZM23.2095 0.660215C23.0845 0.664121 22.9614 0.718808 22.8657 0.818418C22.6724 1.01568 22.6919 1.34771 22.8892 1.54107L22.9224 1.57428C27.0181 5.66998 27.0181 12.3301 22.9224 16.4239C22.7271 16.6212 22.7271 16.9356 22.9224 17.1329C23.02 17.2286 23.1489 17.2794 23.2778 17.2794C23.4048 17.2794 23.5337 17.2286 23.6313 17.1329C28.1138 12.6485 28.1138 5.35162 23.6313 0.867246L23.5552 0.793027C23.4556 0.697324 23.3325 0.654355 23.2095 0.660215ZM6.92041 2.7735C6.7915 2.77154 6.6626 2.81842 6.56299 2.91412C4.90869 4.5274 3.99854 6.68951 3.99854 9.00006C3.99854 11.3106 4.90869 13.4727 6.56299 15.086C6.66065 15.1797 6.78564 15.2266 6.9126 15.2266C7.04346 15.2266 7.17236 15.1758 7.27197 15.0762C7.46338 14.879 7.45947 14.5626 7.26221 14.3692C5.80127 12.9454 4.99854 11.0391 4.99854 9.00006C4.99854 6.961 5.80127 5.05475 7.26221 3.63092C7.45947 3.43756 7.46338 3.12115 7.27197 2.92389C7.17432 2.82428 7.04736 2.7735 6.92041 2.7735ZM20.0767 2.7735C19.9497 2.7735 19.8228 2.82428 19.7251 2.92389C19.5337 3.12115 19.5376 3.43756 19.7349 3.63092C21.1958 5.05475 21.9985 6.961 21.9985 9.00006C21.9985 11.0391 21.1958 12.9454 19.7349 14.3692C19.5376 14.5626 19.5337 14.879 19.7251 15.0762C19.8247 15.1758 19.9536 15.2266 20.0845 15.2266C20.2114 15.2266 20.3364 15.1797 20.4341 15.086C22.0884 13.4727 22.9985 11.3106 22.9985 9.00006C22.9985 6.68951 22.0884 4.5274 20.4341 2.91412C20.3345 2.81842 20.2056 2.77154 20.0767 2.7735ZM10.0454 4.89264C9.91846 4.89068 9.78955 4.93756 9.68994 5.03131C8.59814 6.08014 7.99854 7.48834 7.99854 9.00006C7.99854 10.4688 8.5708 11.8497 9.60986 12.8887C9.70752 12.9864 9.83447 13.0352 9.96338 13.0352C10.0923 13.0352 10.2192 12.9864 10.3169 12.8887C10.5122 12.6934 10.5122 12.377 10.3169 12.1817C9.46729 11.3321 8.99854 10.2012 8.99854 9.00006C8.99854 7.76373 9.49072 6.61139 10.3813 5.75396C10.5806 5.56256 10.5884 5.24615 10.397 5.04693C10.3013 4.94732 10.1743 4.89459 10.0454 4.89264ZM16.9517 4.89264C16.8228 4.89459 16.6958 4.94537 16.6001 5.04693C16.4087 5.2442 16.4165 5.56061 16.6157 5.75201C17.5063 6.61139 17.9985 7.76373 17.9985 9.00006C17.9985 10.2012 17.5298 11.3321 16.6802 12.1817C16.4849 12.377 16.4849 12.6934 16.6802 12.8887C16.7778 12.9864 16.9048 13.0352 17.0337 13.0352C17.1626 13.0352 17.2896 12.9864 17.3872 12.8887C18.4263 11.8497 18.9985 10.4688 18.9985 9.00006C18.9985 7.48834 18.3989 6.07818 17.3071 5.03131C17.2075 4.93561 17.0786 4.89068 16.9517 4.89264ZM13.4985 7.00006C12.395 7.00006 11.4985 7.89654 11.4985 9.00006C11.4985 9.70709 11.8696 10.3262 12.4263 10.6817L6.13525 30.0001H4.49854C4.22119 30.0001 3.99854 30.2227 3.99854 30.5001C3.99854 30.7774 4.22119 31.0001 4.49854 31.0001H22.4985C22.7759 31.0001 22.9985 30.7774 22.9985 30.5001C22.9985 30.2227 22.7759 30.0001 22.4985 30.0001H20.8618L14.5708 10.6817C15.1274 10.3262 15.4985 9.70709 15.4985 9.00006C15.4985 7.89654 14.6021 7.00006 13.4985 7.00006ZM13.4985 8.00006C14.0493 8.00006 14.4985 8.44928 14.4985 9.00006C14.4985 9.55084 14.0493 10.0001 13.4985 10.0001C12.9478 10.0001 12.4985 9.55084 12.4985 9.00006C12.4985 8.44928 12.9478 8.00006 13.4985 8.00006ZM13.3774 10.9864C13.4185 10.9903 13.4575 11.0001 13.4985 11.0001C13.5396 11.0001 13.5786 10.9903 13.6196 10.9864L14.7075 14.3262L11.936 15.418L13.3774 10.9864ZM15.0161 15.2794L16.2095 18.9376L12.3169 16.3438L15.0161 15.2794ZM11.4341 16.9571L15.6938 19.795L9.72314 22.2129L11.4341 16.9571ZM16.7036 20.4629L18.0063 24.461C18.0044 24.4747 17.9985 24.4864 17.9985 24.5001V25.5001C17.9985 25.7774 18.2212 26.0001 18.4985 26.0001C18.5024 26.0001 18.5044 25.9981 18.5063 25.9981L19.811 30.0001H7.18604L7.51221 29.0001H13.9985C14.2759 29.0001 14.4985 28.7774 14.4985 28.5001C14.4985 28.2227 14.2759 28.0001 13.9985 28.0001H7.83838L8.49072 25.9981C8.49268 25.9981 8.49463 26.0001 8.49854 26.0001C8.77588 26.0001 8.99854 25.7774 8.99854 25.5001V24.5001C8.99854 24.4864 8.99268 24.4747 8.99072 24.461L9.32861 23.4219C9.37549 23.4161 9.42432 23.4122 9.47119 23.3926L16.7036 20.4629ZM10.9985 24.0001C10.7212 24.0001 10.4985 24.2227 10.4985 24.5001V25.5001C10.4985 25.7774 10.7212 26.0001 10.9985 26.0001C11.2759 26.0001 11.4985 25.7774 11.4985 25.5001V24.5001C11.4985 24.2227 11.2759 24.0001 10.9985 24.0001ZM13.4985 24.0001C13.2212 24.0001 12.9985 24.2227 12.9985 24.5001V25.5001C12.9985 25.7774 13.2212 26.0001 13.4985 26.0001C13.7759 26.0001 13.9985 25.7774 13.9985 25.5001V24.5001C13.9985 24.2227 13.7759 24.0001 13.4985 24.0001ZM15.9985 24.0001C15.7212 24.0001 15.4985 24.2227 15.4985 24.5001V25.5001C15.4985 25.7774 15.7212 26.0001 15.9985 26.0001C16.2759 26.0001 16.4985 25.7774 16.4985 25.5001V24.5001C16.4985 24.2227 16.2759 24.0001 15.9985 24.0001ZM15.9985 28.0001C15.7212 28.0001 15.4985 28.2227 15.4985 28.5001C15.4985 28.7774 15.7212 29.0001 15.9985 29.0001H17.9985C18.2759 29.0001 18.4985 28.7774 18.4985 28.5001C18.4985 28.2227 18.2759 28.0001 17.9985 28.0001H15.9985Z" fill="#AA87DC"/>
        </svg>