<svg width="20" height="19" viewBox="0 0 20 19" fill="none" xmlns="http://www.w3.org/2000/svg">
<path d="M7.41935 0C6.88634 0 6.45161 0.434728 6.45161 0.967742V4.83871C6.45161 5.37172 6.88634 5.80645 7.41935 5.80645H9.67742V7.74194H3.54839C3.01537 7.74194 2.58065 8.17666 2.58065 8.70968V9.67742H0.967742C0.434728 9.67742 0 10.1121 0 10.6452V15.1613C0 15.6943 0.434728 16.129 0.967742 16.129H4.83871C5.37172 16.129 5.80645 15.6943 5.80645 15.1613V10.6452C5.80645 10.1121 5.37172 9.67742 4.83871 9.67742H3.22581V8.70968C3.22581 8.53201 3.37072 8.3871 3.54839 8.3871H9.67742V11.6129H8.06452C7.5315 11.6129 7.09677 12.0476 7.09677 12.5806V17.0968C7.09677 17.6298 7.5315 18.0645 8.06452 18.0645H11.9355C12.4685 18.0645 12.9032 17.6298 12.9032 17.0968V12.5806C12.9032 12.0476 12.4685 11.6129 11.9355 11.6129H10.3226V8.3871H16.4516C16.6293 8.3871 16.7742 8.53201 16.7742 8.70968V9.67742H15.1613C14.6283 9.67742 14.1935 10.1121 14.1935 10.6452V15.1613C14.1935 15.6943 14.6283 16.129 15.1613 16.129H19.0323C19.5653 16.129 20 15.6943 20 15.1613V10.6452C20 10.1121 19.5653 9.67742 19.0323 9.67742H17.4194V8.70968C17.4194 8.17666 16.9846 7.74194 16.4516 7.74194H10.3226V5.80645H12.5806C13.1137 5.80645 13.5484 5.37172 13.5484 4.83871V0.967742C13.5484 0.434728 13.1137 0 12.5806 0H7.41935ZM7.41935 0.645161H12.5806C12.7583 0.645161 12.9032 0.790071 12.9032 0.967742V4.83871C12.9032 5.01638 12.7583 5.16129 12.5806 5.16129H7.41935C7.24168 5.16129 7.09677 5.01638 7.09677 4.83871V0.967742C7.09677 0.790071 7.24168 0.645161 7.41935 0.645161ZM8.3871 3.22581C8.20817 3.22581 8.06452 3.37072 8.06452 3.54839V4.19355C8.06452 4.37122 8.20817 4.51613 8.3871 4.51613C8.56603 4.51613 8.70968 4.37122 8.70968 4.19355V3.54839C8.70968 3.37072 8.56603 3.22581 8.3871 3.22581ZM10 3.22581C9.82107 3.22581 9.67742 3.37072 9.67742 3.54839V4.19355C9.67742 4.37122 9.82107 4.51613 10 4.51613C10.1789 4.51613 10.3226 4.37122 10.3226 4.19355V3.54839C10.3226 3.37072 10.1789 3.22581 10 3.22581ZM11.6129 3.22581C11.434 3.22581 11.2903 3.37072 11.2903 3.54839V4.19355C11.2903 4.37122 11.434 4.51613 11.6129 4.51613C11.7918 4.51613 11.9355 4.37122 11.9355 4.19355V3.54839C11.9355 3.37072 11.7918 3.22581 11.6129 3.22581ZM0.967742 10.3226H4.83871C5.01638 10.3226 5.16129 10.4675 5.16129 10.6452V15.1613C5.16129 15.339 5.01638 15.4839 4.83871 15.4839H0.967742C0.790071 15.4839 0.645161 15.339 0.645161 15.1613V10.6452C0.645161 10.4675 0.790071 10.3226 0.967742 10.3226ZM15.1613 10.3226H19.0323C19.2099 10.3226 19.3548 10.4675 19.3548 10.6452V15.1613C19.3548 15.339 19.2099 15.4839 19.0323 15.4839H15.1613C14.9836 15.4839 14.8387 15.339 14.8387 15.1613V10.6452C14.8387 10.4675 14.9836 10.3226 15.1613 10.3226ZM8.06452 12.2581H11.9355C12.1132 12.2581 12.2581 12.403 12.2581 12.5806V17.0968C12.2581 17.2744 12.1132 17.4194 11.9355 17.4194H8.06452C7.88684 17.4194 7.74194 17.2744 7.74194 17.0968V12.5806C7.74194 12.403 7.88684 12.2581 8.06452 12.2581ZM1.6129 14.1935C1.43397 14.1935 1.29032 14.3385 1.29032 14.5161C1.29032 14.6938 1.43397 14.8387 1.6129 14.8387H4.19355C4.37248 14.8387 4.51613 14.6938 4.51613 14.5161C4.51613 14.3385 4.37248 14.1935 4.19355 14.1935H1.6129ZM15.8065 14.1935C15.6275 14.1935 15.4839 14.3385 15.4839 14.5161C15.4839 14.6938 15.6275 14.8387 15.8065 14.8387H18.3871C18.566 14.8387 18.7097 14.6938 18.7097 14.5161C18.7097 14.3385 18.566 14.1935 18.3871 14.1935H15.8065ZM8.70968 16.129C8.53075 16.129 8.3871 16.2739 8.3871 16.4516C8.3871 16.6293 8.53075 16.7742 8.70968 16.7742H11.2903C11.4693 16.7742 11.6129 16.6293 11.6129 16.4516C11.6129 16.2739 11.4693 16.129 11.2903 16.129H8.70968Z" fill="#E3E4FF"/>
</svg>
