<svg width="20" height="20" viewBox="0 0 20 20" fill="none" xmlns="http://www.w3.org/2000/svg">
<path d="M10 0C4.48589 0 0 4.48589 0 10C0 15.5141 4.48589 20 10 20C15.5141 20 20 15.5141 20 10C20 4.48589 15.5141 0 10 0ZM10 0.645161C12.4635 0.645161 14.7064 1.60408 16.3785 3.16532L11.1429 8.40096C11.1416 8.40222 11.1404 8.40222 11.1391 8.40222C11.1391 8.40348 11.1391 8.40474 11.1379 8.406L10.1651 9.37878C10.1121 9.36492 10.058 9.35484 10 9.35484C9.64466 9.35484 9.35484 9.64466 9.35484 10C9.35484 10.3553 9.64466 10.6452 10 10.6452C10.3553 10.6452 10.6452 10.3553 10.6452 10C10.6452 9.94204 10.6351 9.88785 10.6212 9.83493L11.3458 9.11164C11.5184 9.37248 11.6129 9.67868 11.6129 10C11.6129 10.8896 10.8896 11.6129 10 11.6129C9.11038 11.6129 8.3871 10.8896 8.3871 10C8.3871 9.11038 9.11038 8.3871 10 8.3871C10.0567 8.3871 10.1134 8.38962 10.1676 8.39592C10.3453 8.4123 10.504 8.28503 10.5229 8.10862C10.5406 7.93095 10.412 7.77218 10.2356 7.75328C10.1575 7.74572 10.0794 7.74194 10 7.74194C8.75504 7.74194 7.74194 8.75504 7.74194 10C7.74194 11.245 8.75504 12.2581 10 12.2581C11.245 12.2581 12.2581 11.245 12.2581 10C12.2581 9.50605 12.098 9.0373 11.807 8.64919L13.1804 7.27445C13.8332 8.03553 14.1935 8.99067 14.1935 10C14.1935 12.3135 12.3135 14.1935 10 14.1935C7.68649 14.1935 5.80645 12.3135 5.80645 10C5.80645 9.05746 6.11895 8.18674 6.64819 7.48362C6.86492 7.64491 7.13206 7.74194 7.41935 7.74194C8.13256 7.74194 8.70968 7.16482 8.70968 6.45161C8.70968 6.3067 8.68322 6.16809 8.63911 6.03579C9.06754 5.8871 9.52621 5.80645 10 5.80645C10.6905 5.80645 11.3747 5.97782 11.9771 6.3004C12.1358 6.38357 12.3286 6.3256 12.4131 6.16809C12.5 6.0131 12.4383 5.81653 12.2833 5.73211C11.5839 5.35786 10.7964 5.16129 10 5.16129C9.39012 5.16129 8.8067 5.2747 8.27117 5.48387C8.04183 5.28352 7.74572 5.16129 7.41935 5.16129C6.70615 5.16129 6.12903 5.73841 6.12903 6.45161C6.12903 6.63558 6.16809 6.80696 6.23866 6.96447C5.56452 7.7936 5.16129 8.84829 5.16129 10C5.16129 12.6676 7.33241 14.8387 10 14.8387C12.6676 14.8387 14.8387 12.6676 14.8387 10C14.8387 8.81804 14.4115 7.70035 13.6379 6.8183L15.0063 5.44859C16.1454 6.69859 16.7742 8.29889 16.7742 10C16.061 10 15.4839 10.5771 15.4839 11.2903C15.4839 11.8322 15.8191 12.2971 16.2966 12.4874C15.9325 13.4161 15.3616 14.2641 14.6195 14.9546C14.4909 15.0769 14.4808 15.281 14.6031 15.4095C14.6673 15.4776 14.7543 15.5129 14.8387 15.5129C14.9194 15.5129 14.9962 15.4839 15.0605 15.4259C15.9123 14.6321 16.5587 13.6454 16.9556 12.568C17.5844 12.4811 18.0645 11.9418 18.0645 11.2903C18.0645 10.8128 17.8037 10.3931 17.4156 10.1714C17.4194 10.1121 17.4194 10.058 17.4194 10C17.4194 8.125 16.7225 6.36341 15.4624 4.9937L16.8347 3.62273C18.3959 5.29486 19.3548 7.53654 19.3548 10C19.3548 15.1588 15.1575 19.3548 10 19.3548C4.84249 19.3548 0.645161 15.1588 0.645161 10C0.645161 4.84123 4.84249 0.645161 10 0.645161ZM10 2.58065C5.90978 2.58065 2.58065 5.90978 2.58065 10C2.58065 10.7901 2.70917 11.5738 2.95489 12.316C2.72555 12.5517 2.58065 12.8705 2.58065 13.2258C2.58065 13.939 3.15776 14.5161 3.87097 14.5161C3.94783 14.5161 4.02596 14.5098 4.1003 14.4934C4.35862 14.8387 4.65474 15.1638 4.97732 15.4612C5.03906 15.5192 5.11971 15.5481 5.19657 15.5481C5.28352 15.5481 5.37046 15.5129 5.43473 15.4423C5.55444 15.3125 5.54435 15.1071 5.41583 14.9874C5.15499 14.7492 4.91683 14.4909 4.7001 14.2162C4.98362 13.9781 5.16129 13.6227 5.16129 13.2258C5.16129 12.5126 4.58417 11.9355 3.87097 11.9355C3.75126 11.9355 3.63533 11.9519 3.52571 11.9846C3.32913 11.3458 3.22581 10.6779 3.22581 10C3.22581 6.26512 6.26512 3.22581 10 3.22581C10.5192 3.22581 11.0358 3.28377 11.5323 3.3997C11.7099 3.44128 11.8813 3.33165 11.9229 3.15776C11.9619 2.98387 11.8523 2.8125 11.6809 2.77092C11.1328 2.64491 10.5683 2.58065 10 2.58065ZM12.9146 3.20313C12.7898 3.19934 12.6676 3.27117 12.6134 3.39214C12.5403 3.55469 12.6134 3.74496 12.776 3.8193C13.0557 3.94405 13.3291 4.09148 13.59 4.25403C13.6429 4.28805 13.7021 4.30444 13.7601 4.30444C13.8684 4.30444 13.973 4.25025 14.0348 4.15323C14.1293 4.00202 14.0839 3.80292 13.9327 3.70842C13.6467 3.52823 13.3468 3.3682 13.0393 3.23085C12.999 3.21195 12.9574 3.20313 12.9146 3.20313ZM7.41935 5.80645C7.46724 5.80645 7.51638 5.81275 7.56048 5.82283C7.79612 5.87828 7.98387 6.05847 8.04435 6.2941C8.05822 6.34199 8.06452 6.39617 8.06452 6.45161C8.06452 6.80696 7.7747 7.09677 7.41935 7.09677C7.29335 7.09677 7.17364 7.06149 7.07409 6.99597C6.8939 6.88004 6.77419 6.68095 6.77419 6.45161C6.77419 6.43271 6.77419 6.41255 6.77797 6.39365C6.80696 6.06477 7.08417 5.80645 7.41935 5.80645ZM16.7427 10.6452H16.7742C17.0224 10.6452 17.2417 10.7875 17.3488 10.9967C17.3929 11.0837 17.4194 11.1845 17.4194 11.2903C17.4194 11.4806 17.3362 11.6545 17.2001 11.7704C17.0867 11.8737 16.9393 11.9355 16.7742 11.9355C16.6772 11.9355 16.5877 11.9128 16.5033 11.875C16.284 11.7742 16.129 11.5486 16.129 11.2903C16.129 10.9451 16.4 10.6641 16.7427 10.6452ZM3.87097 12.5806C4.22631 12.5806 4.51613 12.8705 4.51613 13.2258C4.51613 13.406 4.44178 13.5711 4.31956 13.687C4.20363 13.8029 4.04486 13.871 3.87097 13.871C3.7941 13.871 3.71598 13.8584 3.64919 13.8294C3.40348 13.7387 3.22581 13.503 3.22581 13.2258C3.22581 13.1704 3.23211 13.1162 3.24597 13.0683C3.30645 12.8264 3.50302 12.6411 3.74874 12.5932C3.78654 12.5832 3.82939 12.5806 3.87097 12.5806ZM6.89516 15.2886C6.76915 15.2734 6.64188 15.3314 6.57636 15.4473L6.25378 16.0068C6.16431 16.1605 6.21724 16.3571 6.37097 16.4466C6.42137 16.4756 6.47681 16.4907 6.53226 16.4907C6.64315 16.4907 6.75151 16.4327 6.81074 16.3294L7.13332 15.7699C7.22278 15.6162 7.17112 15.4183 7.01613 15.3289C6.97707 15.3075 6.93674 15.2936 6.89516 15.2886ZM13.1048 15.2886C13.0633 15.2936 13.0217 15.3075 12.9839 15.3289C12.8289 15.4183 12.7772 15.6162 12.8667 15.7712L13.1893 16.3294C13.2485 16.4327 13.3569 16.4907 13.4677 16.4907C13.5232 16.4907 13.5786 16.4768 13.629 16.4466C13.784 16.3584 13.8357 16.1605 13.7462 16.0068L13.4236 15.4486C13.3569 15.3327 13.2296 15.2734 13.1048 15.2886ZM8.32787 15.9173C8.20312 15.935 8.09476 16.0244 8.05948 16.1542L7.89315 16.778C7.84652 16.9493 7.94985 17.1258 8.12122 17.1724C8.14894 17.1799 8.17666 17.1837 8.20564 17.1837C8.34677 17.1837 8.47782 17.088 8.51688 16.9443L8.68448 16.3206C8.72984 16.1492 8.62777 15.9715 8.4564 15.9262C8.4123 15.9136 8.36946 15.911 8.32787 15.9173ZM11.6734 15.9173C11.6318 15.911 11.5877 15.9136 11.5436 15.9262C11.3722 15.9715 11.2702 16.1492 11.3155 16.3206L11.4831 16.9443C11.5222 17.088 11.652 17.1837 11.7944 17.1837C11.8233 17.1837 11.8511 17.1799 11.8788 17.1724C12.0502 17.1258 12.1535 16.9493 12.1069 16.778L11.9405 16.1542C11.9052 16.0244 11.7969 15.935 11.6734 15.9173ZM10 16.129C9.82107 16.129 9.67742 16.2739 9.67742 16.4516V17.0968C9.67742 17.2744 9.82107 17.4194 10 17.4194C10.1789 17.4194 10.3226 17.2744 10.3226 17.0968V16.4516C10.3226 16.2739 10.1789 16.129 10 16.129Z" fill="#E3E4FF"/>
</svg>
